{"title":"Fight Club (1999) 720p Blu-Ray x264 [Dual-Audio] [English 5.1 + ","uid":12060546,"size":1378354209,"categoryP":"video","categoryS":"movies","magnet":"?xt=urn:btih:88cf9b4c19c49ea8c4ff2cb72dccd77655a7c6a2&amp;dn=Fight+Club+%281999%29+720p+Blu-Ray+x264+%5BDual-Audio%5D+%5BEnglish+5.1+%2B+&amp;tr=udp%3A%2F%2Ftracker.openbittorrent.com%3A80&amp;tr=udp%3A%2F%2Fopen.demonii.com%3A1337&amp;tr=udp%3A%2F%2Ftracker.coppersurfer.tk%3A6969&amp;tr=udp%3A%2F%2Fexodus.desync.com%3A6969","seeders":6,"leechers":11,"uploader":"praneet_gupta777","files":2,"time":1435247450,"description":"[center]\n[b][size=7]Fight Club (1999) 720p Blu-Ray x264 [Dual-Audio] [English 5.1 + Hindi 2.0] Esubs [PKG][/size][/b]\n\n\n\n\n\n[img]http://extraimago.com/images/2015/06/25/31878-fight-club.jpg[/img]\n\n\n[img]http://extraimago.com/images/2015/06/25/Untitled.png[/img]\n\n\n\n[img]http://img9.uploadhouse.com/fileuploads/15981/15981250a2a3770f9f004bcdf00afac92833ebdb.png[/img]\n\n\n[quote]\n\n\nGeneral\nUnique ID                   : 214299694140692372900090489235021443490 (0xA1389EAB55A86487B165A758658331A2)\nComplete name               : G:Fight Club (1999) 720p Blu-Ray x264 [Dual-Audio] [English 5.1 + Hindi 2.0] Esubs [PKG]Fight Club (1999) 720p Blu-Ray x264 [Dual-Audio] [English 5.1 + Hindi 2.0] Esubs [PKG].mkv\nFormat                      : Matroska\nFormat version              : Version 2\nFile size                   : 1.28 GiB\nDuration                    : 2h 19mn\nOverall bit rate            : 1 316 Kbps\nEncoded date                : UTC 2015-06-25 08:19:49\nWriting application         : mkvmerge v7.7.0 ('Six Voices') 32bit built on Feb 28 2015 23:23:00\nWriting library             : libebml v1.3.1 + libmatroska v1.4.2\nDURATION                    : 02:15:53.299000000\nNUMBER_OF_FRAMES            : 1861\nNUMBER_OF_BYTES             : 71026\n_STATISTICS_WRITING_APP     : mkvmerge v7.7.0 ('Six Voices') 32bit built on Feb 28 2015 23:23:00\n_STATISTICS_WRITING_DATE_UT : 2015-06-25 08:19:49\n_STATISTICS_TAGS            : BPS DURATION NUMBER_OF_FRAMES NUMBER_OF_BYTES\n\nVideo\nID                          : 1\nFormat                      : AVC\nFormat/Info                 : Advanced Video Codec\nFormat profile              : &lt;a class=&quot;__cf_email__&quot; href=&quot;/cdn-cgi/l/email-protection&quot; data-cfemail=&quot;1b53727c735b572f352b&quot;&gt;[email&amp;#160;protected]&lt;/a&gt;&lt;script data-cfhash='f9e31' type=&quot;text/javascript&quot;&gt;\n/* &lt;![CDATA[ */!function(){try{var t=&quot;currentScript&quot;in document?document.currentScript:function(){for(var t=document.getElementsByTagName(&quot;script&quot;),e=t.length;e--;)if(t[e].getAttribute(&quot;data-cfhash&quot;))return t[e]}();if(t&amp;&amp;t.previousSibling){var e,r,n,i,c=t.previousSibling,a=c.getAttribute(&quot;data-cfemail&quot;);if(a){for(e=&quot;&quot;,r=parseInt(a.substr(0,2),16),n=2;a.length-n;n+=2)i=parseInt(a.substr(n,2),16)^r,e+=String.fromCharCode(i);e=document.createTextNode(e),c.parentNode.replaceChild(e,c)}t.parentNode.removeChild(t);}}catch(u){}}()/* ]]&gt; */&lt;/script&gt;\nFormat settings, CABAC      : Yes\nFormat settings, ReFrames   : 7 frames\nCodec ID                    : V_MPEG4/ISO/AVC\nDuration                    : 2h 19mn\nBit rate                    : 930 Kbps\nWidth                       : 1 280 pixels\nHeight                      : 528 pixels\nDisplay aspect ratio        : 2.40:1\nFrame rate mode             : Constant\nFrame rate                  : 23.976 fps\nColor space                 : YUV\nChroma subsampling          : 4:2:0\nBit depth                   : 8 bits\nScan type                   : Progressive\nBits/(Pixel*Frame)          : 0.057\nStream size                 : 901 MiB (69%)\nTitle                       : [PKG]\nWriting library             : x264 core 125 r2200 999b753\nEncoding settings           : cabac=1 / ref=8 / deblock=1:0:0 / analyse=0x3:0x133 / me=umh / subme=9 / psy=1 / psy_rd=1.00:0.00 / mixed_ref=1 / me_range=16 / chroma_me=1 / trellis=2 / 8x8dct=1 / cqm=0 / deadzone=21,11 / fast_pskip=1 / chroma_qp_offset=-2 / threads=12 / lookahead_threads=2 / sliced_threads=0 / nr=0 / decimate=1 / interlaced=0 / bluray_compat=0 / constrained_intra=0 / bframes=3 / b_pyramid=1 / b_adapt=2 / b_bias=2 / direct=3 / weightb=1 / open_gop=0 / weightp=2 / keyint=240 / keyint_min=23 / scenecut=40 / intra_refresh=0 / rc_lookahead=60 / rc=2pass / mbtree=1 / bitrate=930 / ratetol=1.0 / qcomp=0.60 / qpmin=10 / qpmax=51 / qpstep=4 / cplxblur=20.0 / qblur=0.5 / ip_ratio=1.40 / aq=1:1.00\nDefault                     : Yes\nForced                      : No\n\nAudio #1\nID                          : 2\nFormat                      : AC-3\nFormat/Info                 : Audio Coding 3\nMode extension              : CM (complete main)\nFormat settings, Endianness : Big\nCodec ID                    : A_AC3\nDuration                    : 2h 19mn\nBit rate mode               : Constant\nBit rate                    : 160 Kbps\nChannel(s)                  : 2 channels\nChannel positions           : Front: L R\nSampling rate               : 48.0 KHz\nBit depth                   : 16 bits\nCompression mode            : Lossy\nStream size                 : 159 MiB (12%)\nTitle                       : [PKG]\nLanguage                    : Hindi\nDefault                     : Yes\nForced                      : No\n\nAudio #2\nID                          : 3\nFormat                      : AC-3\nFormat/Info                 : Audio Coding 3\nMode extension              : CM (complete main)\nFormat settings, Endianness : Big\nCodec ID                    : A_AC3\nDuration                    : 2h 19mn\nBit rate mode               : Constant\nBit rate                    : 224 Kbps\nChannel(s)                  : 6 channels\nChannel positions           : Front: L C R, Side: L R, LFE\nSampling rate               : 48.0 KHz\nBit depth                   : 16 bits\nCompression mode            : Lossy\nStream size                 : 223 MiB (17%)\nTitle                       : [PKG]\nLanguage                    : English\nDefault                     : No\nForced                      : No\n\nText\nID                          : 4\nFormat                      : UTF-8\nCodec ID                    : S_TEXT/UTF8\nCodec ID/Info               : UTF-8 Plain Text\nTitle                       : [PKG]\nLanguage                    : English\nDefault                     : Yes\nForced                      : No\n\n\n[color=navy][size=6][b]SAMPLE WITHIN TORRENT[/b][/size][/color]\n\n\n\n\n\n[img]http://icons.iconarchive.com/icons/tribalmarkings/colorflow/256/screenshots-icon.png[/img]\n\n\n\n[img]http://extraimago.com/images/2015/06/25/vlcsnap-2015-06-25-19h08m39s118.png[/img]\n\n[img]http://extraimago.com/images/2015/06/25/a9e1cbbab2824cf49f83bc6cee0058b9.png[/img]\n\n[img]http://extraimago.com/images/2015/06/25/3be919c31be14610951212dbb074a9e0.png[/img]\n\n[img]http://extraimago.com/images/2015/06/25/b37612f2919246b9b786b47eed77b43e.png[/img]\n\n[img]http://extraimago.com/images/2015/06/25/vlcsnap-2015-06-25-19h09m45s9.png[/img]\n\n[img]http://extraimago.com/images/2015/06/25/vlcsnap-2015-06-25-19h09m57s124.png[/img]\n\n[img]http://extraimago.com/images/2015/06/25/FightClub1999720pBlu-Rayx264Dual-AudioEnglish5.1Hindi2.0EsubsPKG.mkv_thumbs_2015.06.25_19.07.44.jpg[/img]","torrent":{"xt":"urn:btih:88cf9b4c19c49ea8c4ff2cb72dccd77655a7c6a2","amp;dn":"Fight+Club+%281999%29+720p+Blu-Ray+x264+%5BDual-Audio%5D+%5BEnglish+5.1+%2B+","amp;tr":["udp%3A%2F%2Ftracker.openbittorrent.com%3A80","udp%3A%2F%2Fopen.demonii.com%3A1337","udp%3A%2F%2Ftracker.coppersurfer.tk%3A6969","udp%3A%2F%2Fexodus.desync.com%3A6969"],"infoHash":"88cf9b4c19c49ea8c4ff2cb72dccd77655a7c6a2","infoHashBuffer":{"type":"Buffer","data":[136,207,155,76,25,196,158,168,196,255,44,183,45,204,215,118,85,167,198,162]},"announce":[],"urlList":[]}}